<mxfile host="app.diagrams.net" modified="2023-11-01T15:49:30.220Z" agent="Mozilla/5.0 (Macintosh; Intel Mac OS X 10_15_7) AppleWebKit/605.1.15 (KHTML, like Gecko) Version/16.6 Safari/605.1.15" etag="6RRGJ5wFOMgPfEjMZvmC" version="22.0.8" type="device">
  <diagram name="Page-1" id="kL8WpDiYIEIAZ9Q3YsfI">
    <mxGraphModel dx="632" dy="1007" grid="1" gridSize="10" guides="1" tooltips="1" connect="1" arrows="1" fold="1" page="1" pageScale="1" pageWidth="850" pageHeight="1100" math="0" shadow="0">
      <root>
        <mxCell id="0" />
        <mxCell id="1" parent="0" />
        <mxCell id="zeUDy2emTeTrm0JhJ8G7-1" value="" style="rounded=1;whiteSpace=wrap;html=1;fillColor=#6495ED;shadow=0;" vertex="1" parent="1">
          <mxGeometry x="320" y="480" width="40" height="40" as="geometry" />
        </mxCell>
        <mxCell id="zeUDy2emTeTrm0JhJ8G7-3" value="" style="rounded=1;whiteSpace=wrap;html=1;fillColor=#6495ED;shadow=0;" vertex="1" parent="1">
          <mxGeometry x="320" y="440" width="40" height="40" as="geometry" />
        </mxCell>
        <mxCell id="zeUDy2emTeTrm0JhJ8G7-4" value="" style="rounded=1;whiteSpace=wrap;html=1;fillColor=#6495ED;shadow=0;" vertex="1" parent="1">
          <mxGeometry x="400" y="480" width="40" height="40" as="geometry" />
        </mxCell>
        <mxCell id="zeUDy2emTeTrm0JhJ8G7-6" value="" style="rounded=1;whiteSpace=wrap;html=1;fillColor=#00FF00;shadow=0;" vertex="1" parent="1">
          <mxGeometry x="360" y="400" width="40" height="40" as="geometry" />
        </mxCell>
        <mxCell id="zeUDy2emTeTrm0JhJ8G7-7" value="" style="rounded=1;whiteSpace=wrap;html=1;fillColor=#FF8500;shadow=0;" vertex="1" parent="1">
          <mxGeometry x="400" y="400" width="40" height="40" as="geometry" />
        </mxCell>
        <mxCell id="zeUDy2emTeTrm0JhJ8G7-8" value="" style="rounded=1;whiteSpace=wrap;html=1;fillColor=#00FF00;shadow=0;" vertex="1" parent="1">
          <mxGeometry x="320" y="400" width="40" height="40" as="geometry" />
        </mxCell>
        <mxCell id="zeUDy2emTeTrm0JhJ8G7-9" value="" style="rounded=1;whiteSpace=wrap;html=1;fillColor=#00FF00;shadow=0;" vertex="1" parent="1">
          <mxGeometry x="320" y="360" width="40" height="40" as="geometry" />
        </mxCell>
        <mxCell id="zeUDy2emTeTrm0JhJ8G7-10" value="" style="rounded=1;whiteSpace=wrap;html=1;fillColor=#FF8500;shadow=0;" vertex="1" parent="1">
          <mxGeometry x="400" y="440" width="40" height="40" as="geometry" />
        </mxCell>
        <mxCell id="zeUDy2emTeTrm0JhJ8G7-11" value="" style="rounded=1;whiteSpace=wrap;html=1;fillColor=#FF8500;shadow=0;" vertex="1" parent="1">
          <mxGeometry x="400" y="360" width="40" height="40" as="geometry" />
        </mxCell>
        <mxCell id="zeUDy2emTeTrm0JhJ8G7-12" value="" style="rounded=1;whiteSpace=wrap;html=1;fillColor=#FF8500;shadow=0;" vertex="1" parent="1">
          <mxGeometry x="360" y="360" width="40" height="40" as="geometry" />
        </mxCell>
        <mxCell id="zeUDy2emTeTrm0JhJ8G7-13" value="" style="rounded=1;whiteSpace=wrap;html=1;fillColor=#00FF00;shadow=0;" vertex="1" parent="1">
          <mxGeometry x="360" y="440" width="40" height="40" as="geometry" />
        </mxCell>
        <mxCell id="zeUDy2emTeTrm0JhJ8G7-14" value="" style="rounded=1;whiteSpace=wrap;html=1;fillColor=#6495ED;shadow=0;" vertex="1" parent="1">
          <mxGeometry x="360" y="480" width="40" height="40" as="geometry" />
        </mxCell>
      </root>
    </mxGraphModel>
  </diagram>
</mxfile>
